<?xml version="1.0" encoding="iso-8859-1"?>
<!-- Generator: Adobe Illustrator 19.0.0, SVG Export Plug-In . SVG Version: 6.00 Build 0)  -->
<svg version="1.1" id="Capa_1" xmlns="http://www.w3.org/2000/svg" xmlns:xlink="http://www.w3.org/1999/xlink" x="0px" y="0px"
	 viewBox="0 0 512 512" style="enable-background:new 0 0 512 512;" xml:space="preserve">
<path style="fill:#65B1FC;" d="M496,256c0,132.9-107.999,241-240,241C123.701,497,15,388.299,15,256C15,123.699,123.701,15,256,15
	S496,123.699,496,256z"/>
<path style="fill:#1689FC;" d="M496,256c0,132.9-107.999,241-240,241V15C388.299,15,496,123.699,496,256z"/>
<path style="fill:#96EBE6;" d="M256,0C115.3,0,0,115.3,0,256s115.3,256,256,256s256-115.3,256-256c0-0.3,0-0.3,0-0.601s0-0.3,0-0.3
	V254.2C510.801,114.399,396.099,0,256,0z M179.5,43.799c-18.001,23.101-33.001,55.6-43.2,92.501
	c-36.899,10.199-69.401,25.199-92.5,43.2C66.301,117.1,117.1,66.299,179.5,43.799z M128.8,170.2c-5.099,26.699-7.8,55.499-7.8,85.8
	s2.701,59.099,7.8,85.8C70.3,322.6,30,291.1,30,256C30,220.899,70.3,189.399,128.8,170.2z M43.801,332.5
	c23.099,17.999,55.6,32.999,92.5,43.2c10.199,36.899,25.199,69.399,43.2,92.5C117.1,445.699,66.301,394.9,43.801,332.5z
	 M241,479.299c-29.099-9.3-54.6-46-70.8-96.099c22.2,4.2,45.899,6.599,70.8,7.5V479.299z M241,360.7
	c-28.2-0.901-55.201-4.501-79.799-9.901C154.9,321.7,151,289.6,151,256s3.9-65.7,10.201-94.801c24.598-5.4,51.599-9,79.799-9.899
	V360.7z M241,121.3c-24.901,0.899-48.6,3.3-70.8,7.5c16.199-50.101,41.7-86.801,70.8-96.101V121.3z M467.199,179.5
	c-23.099-18.301-54.6-33.001-91.5-43.2c-10.199-36.901-25.199-69.401-43.2-92.501C394.9,66.299,444.699,116.8,467.199,179.5z
	 M271,32.699c29.099,9.3,54.6,46,70.8,96.101c-22.2-4.2-45.899-6.601-70.8-7.5V32.699z M271,151.3
	c28.2,0.899,55.201,4.499,79.799,9.899C357.1,190.3,361,222.4,361,256c-0.3,34.2-3.9,66-10.499,94.799
	c-24.901,5.7-51.601,8.701-79.501,9.6V151.3z M271,479.299v-88.9c24.6-0.601,48.3-3.3,70.8-7.5
	C325.3,433.599,299.5,469.999,271,479.299z M331.901,468.5c18.3-23.101,33.3-55.6,43.499-93.1
	c36.901-10.199,68.401-24.901,92.1-43.2C444.699,394.9,394.9,446,331.901,468.5z M481,256.3c0,14.399-6.899,28.799-20.4,42.299
	c-17.701,17.701-45,32.401-77.701,43.2c5.101-26.7,7.8-55.201,8.101-85.8c0-30.3-2.701-59.101-7.8-85.8
	c58.5,19.199,97.8,50.698,97.8,85.8L481,256.3L481,256.3z"/>
<path style="fill:#00C8C8;" d="M256,0v512c140.7,0,256-115.3,256-256c0-0.3,0-0.3,0-0.601s0-0.3,0-0.3V254.2
	C510.801,114.399,396.099,0,256,0z M467.199,179.5c-23.099-18.301-54.6-33.001-91.5-43.2c-10.199-36.901-25.199-69.401-43.2-92.501
	C394.9,66.299,444.699,116.8,467.199,179.5z M271,32.699c29.099,9.3,54.6,46,70.8,96.101c-22.2-4.2-45.899-6.601-70.8-7.5V32.699z
	 M271,151.3c28.2,0.899,55.201,4.499,79.799,9.899C357.1,190.3,361,222.4,361,256c-0.3,34.2-3.9,66-10.499,94.799
	c-24.901,5.7-51.601,8.701-79.501,9.6V151.3z M271,479.299v-88.9c24.6-0.601,48.3-3.3,70.8-7.5
	C325.3,433.599,299.5,469.999,271,479.299z M331.901,468.5c18.3-23.101,33.3-55.6,43.499-93.1
	c36.901-10.199,68.401-24.901,92.1-43.2C444.699,394.9,394.9,446,331.901,468.5z M481,256.3c0,14.399-6.899,28.799-20.4,42.299
	c-17.701,17.701-45,32.401-77.701,43.2c5.101-26.7,7.8-55.201,8.101-85.8c0-30.3-2.701-59.101-7.8-85.8
	c58.5,19.199,97.8,50.698,97.8,85.8L481,256.3L481,256.3z"/>
<path style="fill:#FF281D;" d="M406,241c-57.9,0-105,47.1-105,105c0,22.8,7.2,44.7,21,62.999l71.999,97c2.701,3.9,7.202,6,12.001,6
	s9.3-2.1,12.001-6l71.999-97C503.8,390.7,512,368.8,512,346C512,288.1,463.9,241,406,241z M406,391c-24.901,0-45-20.102-45-45
	c0-24.9,20.099-45,45-45s45,20.1,45,45C451,370.898,430.901,391,406,391z"/>
<path style="fill:#B80000;" d="M406,241v60c24.901,0,45,20.1,45,45c0,24.898-20.099,45-45,45v121c4.799,0,9.3-2.1,12.001-6L490,409
	c13.8-18.3,22-40.2,22-63C512,288.1,463.9,241,406,241z"/>
<g>
</g>
<g>
</g>
<g>
</g>
<g>
</g>
<g>
</g>
<g>
</g>
<g>
</g>
<g>
</g>
<g>
</g>
<g>
</g>
<g>
</g>
<g>
</g>
<g>
</g>
<g>
</g>
<g>
</g>
</svg>
